<?xml version="1.0" encoding="UTF-8" standalone="no"?>
<!DOCTYPE svg PUBLIC "-//W3C//DTD SVG 1.1//EN"
 "http://www.w3.org/Graphics/SVG/1.1/DTD/svg11.dtd">
<!-- Generated by graphviz version 2.38.0 (20140413.2041)
 -->
<!-- Title: goal Pages: 1 -->
<svg width="2164pt" height="487pt"
 viewBox="0.00 0.00 2164.07 487.26" xmlns="http://www.w3.org/2000/svg" xmlns:xlink="http://www.w3.org/1999/xlink">
<g id="graph0" class="graph" transform="scale(1 1) rotate(0) translate(4 483.258)">
<title>goal</title>
<polygon fill="white" stroke="none" points="-4,4 -4,-483.258 2160.07,-483.258 2160.07,4 -4,4"/>
<!-- ENTRY -->
<g id="node1" class="node"><title>ENTRY</title>
<ellipse fill="black" stroke="black" cx="1.8" cy="-189.258" rx="1.8" ry="1.8"/>
</g>
<!-- 0 -->
<g id="node4" class="node"><title>0</title>
<ellipse fill="none" stroke="black" cx="95.0932" cy="-170.258" rx="23.5" ry="23.5"/>
<ellipse fill="none" stroke="black" cx="95.0932" cy="-170.258" rx="27.5" ry="27.5"/>
<text text-anchor="middle" x="95.0932" y="-166.058" font-family="Times,serif" font-size="14.00">0</text>
</g>
<!-- ENTRY&#45;&gt;0 -->
<g id="edge24" class="edge"><title>ENTRY&#45;&gt;0</title>
<path fill="none" stroke="black" d="M3.82527,-189.045C9.22734,-187.921 34.9965,-182.558 57.6261,-177.848"/>
<polygon fill="black" stroke="black" points="58.641,-181.212 67.718,-175.748 57.2146,-174.359 58.641,-181.212"/>
<text text-anchor="middle" x="35.5966" y="-188.058" font-family="Times,serif" font-size="14.00">IN</text>
</g>
<!-- en_0 -->
<g id="node2" class="node"><title>en_0</title>
<ellipse fill="black" stroke="black" cx="1.8" cy="-152.258" rx="1.8" ry="1.8"/>
</g>
<!-- en_0&#45;&gt;0 -->
<g id="edge25" class="edge"><title>en_0&#45;&gt;0</title>
<path fill="none" stroke="black" d="M3.97331,-152.138C9.30138,-151.619 31.7301,-149.765 49.5932,-153.258 53.0249,-153.93 56.537,-154.843 60.0092,-155.9"/>
<polygon fill="black" stroke="black" points="58.9948,-159.252 69.5894,-159.178 61.261,-152.629 58.9948,-159.252"/>
<text text-anchor="middle" x="35.5966" y="-156.058" font-family="Times,serif" font-size="14.00">main</text>
</g>
<!-- eof_7 -->
<g id="node3" class="node"><title>eof_7</title>
<ellipse fill="black" stroke="black" cx="2154.27" cy="-121.258" rx="1.8" ry="1.8"/>
</g>
<!-- 0&#45;&gt;0 -->
<g id="edge2" class="edge"><title>0&#45;&gt;0</title>
<path fill="none" stroke="black" d="M84.3137,-195.985C83.5703,-206.687 87.1635,-215.758 95.0932,-215.758 100.297,-215.758 103.633,-211.851 105.102,-206.141"/>
<polygon fill="black" stroke="black" points="108.606,-206.221 105.873,-195.985 101.626,-205.691 108.606,-206.221"/>
<text text-anchor="middle" x="95.0932" y="-218.558" font-family="Times,serif" font-size="14.00">DEF / advance_strp</text>
</g>
<!-- 1 -->
<g id="node5" class="node"><title>1</title>
<ellipse fill="none" stroke="black" cx="367.752" cy="-232.258" rx="23.5" ry="23.5"/>
<ellipse fill="none" stroke="black" cx="367.752" cy="-232.258" rx="27.5" ry="27.5"/>
<text text-anchor="middle" x="367.752" y="-228.058" font-family="Times,serif" font-size="14.00">1</text>
</g>
<!-- 0&#45;&gt;1 -->
<g id="edge1" class="edge"><title>0&#45;&gt;1</title>
<path fill="none" stroke="black" d="M118.994,-184.461C125.745,-188.132 133.287,-191.751 140.593,-194.258 205.227,-216.436 284.85,-225.957 330.312,-229.823"/>
<polygon fill="black" stroke="black" points="330.041,-233.313 340.29,-230.627 330.604,-226.335 330.041,-233.313"/>
<text text-anchor="middle" x="217.374" y="-229.058" font-family="Times,serif" font-size="14.00">&#39;g&#39; / init_goal, advance_strp</text>
</g>
<!-- 1&#45;&gt;0 -->
<g id="edge5" class="edge"><title>1&#45;&gt;0</title>
<path fill="none" stroke="black" d="M348.175,-212.53C334.6,-199.582 314.987,-183.713 294.156,-176.258 240.373,-157.012 173.034,-160.208 132.35,-164.831"/>
<polygon fill="black" stroke="black" points="131.858,-161.365 122.358,-166.057 132.71,-168.313 131.858,-161.365"/>
<text text-anchor="middle" x="217.374" y="-179.058" font-family="Times,serif" font-size="14.00">DEF / advance_strp</text>
</g>
<!-- 1&#45;&gt;1 -->
<g id="edge4" class="edge"><title>1&#45;&gt;1</title>
<path fill="none" stroke="black" d="M344.633,-248.114C333.386,-262.427 341.092,-277.758 367.752,-277.758 388.789,-277.758 398.024,-268.213 395.459,-257.154"/>
<polygon fill="black" stroke="black" points="398.518,-255.447 390.872,-248.114 392.276,-258.615 398.518,-255.447"/>
<text text-anchor="middle" x="367.752" y="-280.558" font-family="Times,serif" font-size="14.00">&#39;g&#39; / init_goal, advance_strp</text>
</g>
<!-- 2 -->
<g id="node6" class="node"><title>2</title>
<ellipse fill="none" stroke="black" cx="689.693" cy="-275.258" rx="23.5" ry="23.5"/>
<ellipse fill="none" stroke="black" cx="689.693" cy="-275.258" rx="27.5" ry="27.5"/>
<text text-anchor="middle" x="689.693" y="-271.058" font-family="Times,serif" font-size="14.00">2</text>
</g>
<!-- 1&#45;&gt;2 -->
<g id="edge3" class="edge"><title>1&#45;&gt;2</title>
<path fill="none" stroke="black" d="M395.533,-230.455C438.195,-228.195 524.009,-226.16 594.912,-240.258 615.621,-244.376 637.797,-252.469 655.383,-259.837"/>
<polygon fill="black" stroke="black" points="654.073,-263.083 664.642,-263.825 656.843,-256.654 654.073,-263.083"/>
<text text-anchor="middle" x="518.13" y="-243.058" font-family="Times,serif" font-size="14.00">&#39;(&#39; / advance_strp</text>
</g>
<!-- 2&#45;&gt;0 -->
<g id="edge9" class="edge"><title>2&#45;&gt;0</title>
<path fill="none" stroke="black" d="M665.917,-261.124C647.364,-250.106 620.195,-235.078 594.912,-225.258 467.255,-175.681 430.571,-170.307 294.156,-158.258 226.17,-152.254 208.252,-149.296 140.593,-158.258 137.693,-158.643 134.713,-159.162 131.736,-159.77"/>
<polygon fill="black" stroke="black" points="130.682,-156.422 121.743,-162.11 132.278,-163.237 130.682,-156.422"/>
<text text-anchor="middle" x="367.752" y="-176.058" font-family="Times,serif" font-size="14.00">DEF / advance_strp</text>
</g>
<!-- 2&#45;&gt;1 -->
<g id="edge7" class="edge"><title>2&#45;&gt;1</title>
<path fill="none" stroke="black" d="M663.212,-283.356C617.323,-296.552 518.395,-318.618 441.349,-291.258 423.478,-284.912 406.807,-272.081 393.958,-260.001"/>
<polygon fill="black" stroke="black" points="396.059,-257.158 386.476,-252.641 391.151,-262.148 396.059,-257.158"/>
<text text-anchor="middle" x="518.13" y="-308.058" font-family="Times,serif" font-size="14.00">&#39;)&#39; / incr_ohs, advance_strp</text>
</g>
<!-- 2&#45;&gt;1 -->
<g id="edge8" class="edge"><title>2&#45;&gt;1</title>
<path fill="none" stroke="black" d="M662.088,-274.821C616.504,-273.668 520.708,-269.477 441.349,-254.258 428.819,-251.856 415.377,-248.121 403.506,-244.406"/>
<polygon fill="black" stroke="black" points="404.551,-241.066 393.96,-241.321 402.398,-247.727 404.551,-241.066"/>
<text text-anchor="middle" x="518.13" y="-275.058" font-family="Times,serif" font-size="14.00">&#39;g&#39; / init_goal, advance_strp</text>
</g>
<!-- 3 -->
<g id="node7" class="node"><title>3</title>
<ellipse fill="none" stroke="black" cx="1032.82" cy="-325.258" rx="23.5" ry="23.5"/>
<ellipse fill="none" stroke="black" cx="1032.82" cy="-325.258" rx="27.5" ry="27.5"/>
<text text-anchor="middle" x="1032.82" y="-321.058" font-family="Times,serif" font-size="14.00">3</text>
</g>
<!-- 2&#45;&gt;3 -->
<g id="edge6" class="edge"><title>2&#45;&gt;3</title>
<path fill="none" stroke="black" d="M717.054,-279.063C762.274,-285.596 857.543,-299.392 938.037,-311.258 956.918,-314.042 977.932,-317.176 995.274,-319.771"/>
<polygon fill="black" stroke="black" points="995.138,-323.29 1005.55,-321.31 996.175,-316.367 995.138,-323.29"/>
<text text-anchor="middle" x="861.255" y="-314.058" font-family="Times,serif" font-size="14.00">&#39;&quot;&#39;, &#39;&#39;&#39; / advance_strp</text>
</g>
<!-- 3&#45;&gt;0 -->
<g id="edge12" class="edge"><title>3&#45;&gt;0</title>
<path fill="none" stroke="black" d="M1013.05,-344.49C995.45,-361.035 967.496,-383.702 938.037,-393.258 727.935,-461.414 656.334,-426.946 441.349,-376.258 299.268,-342.76 250.197,-340.676 140.593,-244.258 128.338,-233.478 118.458,-218.483 111.15,-204.807"/>
<polygon fill="black" stroke="black" points="114.139,-202.963 106.503,-195.619 107.893,-206.122 114.139,-202.963"/>
<text text-anchor="middle" x="518.13" y="-416.058" font-family="Times,serif" font-size="14.00">DEF / advance_strp</text>
</g>
<!-- 3&#45;&gt;1 -->
<g id="edge11" class="edge"><title>3&#45;&gt;1</title>
<path fill="none" stroke="black" d="M1005.4,-328.143C904.311,-338.73 542.576,-372.36 441.349,-323.258 416.639,-311.273 397.706,-286.37 385.38,-265.641"/>
<polygon fill="black" stroke="black" points="388.325,-263.738 380.345,-256.768 382.237,-267.193 388.325,-263.738"/>
<text text-anchor="middle" x="689.693" y="-352.058" font-family="Times,serif" font-size="14.00">&#39;g&#39; / init_goal, advance_strp</text>
</g>
<!-- 4 -->
<g id="node8" class="node"><title>4</title>
<ellipse fill="none" stroke="black" cx="1391.49" cy="-366.258" rx="23.5" ry="23.5"/>
<ellipse fill="none" stroke="black" cx="1391.49" cy="-366.258" rx="27.5" ry="27.5"/>
<text text-anchor="middle" x="1391.49" y="-362.058" font-family="Times,serif" font-size="14.00">4</text>
</g>
<!-- 3&#45;&gt;4 -->
<g id="edge10" class="edge"><title>3&#45;&gt;4</title>
<path fill="none" stroke="black" d="M1060.18,-328.193C1105.4,-333.239 1200.67,-343.917 1281.16,-353.258 1305.36,-356.067 1332.57,-359.302 1353.79,-361.842"/>
<polygon fill="black" stroke="black" points="1353.64,-365.349 1363.99,-363.064 1354.48,-358.399 1353.64,-365.349"/>
<text text-anchor="middle" x="1204.38" y="-356.058" font-family="Times,serif" font-size="14.00">&#39;a&#39; / advance_strp</text>
</g>
<!-- 4&#45;&gt;0 -->
<g id="edge15" class="edge"><title>4&#45;&gt;0</title>
<path fill="none" stroke="black" d="M1366.49,-377.809C1309.93,-403.924 1163.31,-465.258 1033.82,-465.258 366.752,-465.258 366.752,-465.258 366.752,-465.258 243.882,-465.258 213.687,-405.022 140.593,-306.258 118.941,-277.002 107.497,-236.689 101.669,-207.557"/>
<polygon fill="black" stroke="black" points="105.043,-206.559 99.7668,-197.371 98.1617,-207.844 105.043,-206.559"/>
<text text-anchor="middle" x="689.693" y="-468.058" font-family="Times,serif" font-size="14.00">DEF / advance_strp</text>
</g>
<!-- 4&#45;&gt;1 -->
<g id="edge13" class="edge"><title>4&#45;&gt;1</title>
<path fill="none" stroke="black" d="M1363.95,-367.266C1264.86,-370.821 907.184,-381.802 612.912,-367.258 536.382,-363.476 506.309,-390.896 441.349,-350.258 411.383,-331.513 391.898,-295.405 380.736,-268.046"/>
<polygon fill="black" stroke="black" points="383.877,-266.466 376.996,-258.41 377.352,-268.999 383.877,-266.466"/>
<text text-anchor="middle" x="861.255" y="-378.058" font-family="Times,serif" font-size="14.00">&#39;g&#39; / init_goal, advance_strp</text>
</g>
<!-- 5 -->
<g id="node9" class="node"><title>5</title>
<ellipse fill="none" stroke="black" cx="1641.01" cy="-121.258" rx="23.5" ry="23.5"/>
<ellipse fill="none" stroke="black" cx="1641.01" cy="-121.258" rx="27.5" ry="27.5"/>
<text text-anchor="middle" x="1641.01" y="-117.058" font-family="Times,serif" font-size="14.00">5</text>
</g>
<!-- 4&#45;&gt;5 -->
<g id="edge14" class="edge"><title>4&#45;&gt;5</title>
<path fill="none" stroke="black" d="M1411.92,-347.034C1455.93,-303.471 1563.31,-197.181 1613.43,-147.57"/>
<polygon fill="black" stroke="black" points="1616.03,-149.916 1620.68,-140.394 1611.11,-144.941 1616.03,-149.916"/>
<text text-anchor="middle" x="1548.67" y="-254.058" font-family="Times,serif" font-size="14.00">&#39;l&#39; / advance_strp</text>
</g>
<!-- 5&#45;&gt;0 -->
<g id="edge18" class="edge"><title>5&#45;&gt;0</title>
<path fill="none" stroke="black" d="M1613.74,-116.317C1568.66,-108.279 1473.58,-93.2584 1392.49,-93.2584 366.752,-93.2584 366.752,-93.2584 366.752,-93.2584 263.202,-93.2584 238.153,-114.547 140.593,-149.258 136.808,-150.605 132.911,-152.166 129.073,-153.817"/>
<polygon fill="black" stroke="black" points="127.414,-150.725 119.744,-158.034 130.298,-157.103 127.414,-150.725"/>
<text text-anchor="middle" x="861.255" y="-96.0584" font-family="Times,serif" font-size="14.00">DEF / advance_strp</text>
</g>
<!-- 5&#45;&gt;1 -->
<g id="edge17" class="edge"><title>5&#45;&gt;1</title>
<path fill="none" stroke="black" d="M1613.24,-121.08C1446.17,-120.133 550.043,-117.55 441.349,-170.258 430.288,-175.622 432.317,-182.851 423.349,-191.258 415.904,-198.238 407.291,-205.16 399.139,-211.274"/>
<polygon fill="black" stroke="black" points="396.88,-208.591 390.878,-217.322 401.014,-214.239 396.88,-208.591"/>
<text text-anchor="middle" x="1032.82" y="-130.058" font-family="Times,serif" font-size="14.00">&#39;g&#39; / init_goal, advance_strp</text>
</g>
<!-- 6 -->
<g id="node10" class="node"><title>6</title>
<ellipse fill="none" stroke="black" cx="1842.08" cy="-121.258" rx="23.5" ry="23.5"/>
<ellipse fill="none" stroke="black" cx="1842.08" cy="-121.258" rx="27.5" ry="27.5"/>
<text text-anchor="middle" x="1842.08" y="-117.058" font-family="Times,serif" font-size="14.00">6</text>
</g>
<!-- 5&#45;&gt;6 -->
<g id="edge16" class="edge"><title>5&#45;&gt;6</title>
<path fill="none" stroke="black" d="M1668.85,-121.258C1703.76,-121.258 1764.87,-121.258 1804.13,-121.258"/>
<polygon fill="black" stroke="black" points="1804.34,-124.759 1814.34,-121.258 1804.34,-117.759 1804.34,-124.759"/>
<text text-anchor="middle" x="1741.54" y="-124.058" font-family="Times,serif" font-size="14.00">&#39;&quot;&#39;, &#39;&#39;&#39; / advance_strp</text>
</g>
<!-- 6&#45;&gt;0 -->
<g id="edge21" class="edge"><title>6&#45;&gt;0</title>
<path fill="none" stroke="black" d="M1818.1,-107.429C1781.97,-87.0285 1709.05,-51.2584 1642.01,-51.2584 366.752,-51.2584 366.752,-51.2584 366.752,-51.2584 264.436,-51.2584 224.192,-35.2692 140.593,-94.2584 126.451,-104.238 116.114,-120.252 108.983,-135.013"/>
<polygon fill="black" stroke="black" points="105.647,-133.899 104.752,-144.456 112.035,-136.762 105.647,-133.899"/>
<text text-anchor="middle" x="1032.82" y="-54.0584" font-family="Times,serif" font-size="14.00">DEF / advance_strp</text>
</g>
<!-- 6&#45;&gt;1 -->
<g id="edge20" class="edge"><title>6&#45;&gt;1</title>
<path fill="none" stroke="black" d="M1816.5,-132.448C1810.12,-135.005 1803.18,-137.488 1796.58,-139.258 1741.06,-154.147 1725.78,-152.362 1668.51,-157.258 1396.67,-180.501 705.622,-127.454 441.349,-195.258 427.154,-198.9 412.56,-205.654 400.214,-212.404"/>
<polygon fill="black" stroke="black" points="398.207,-209.519 391.254,-217.513 401.675,-215.599 398.207,-209.519"/>
<text text-anchor="middle" x="1204.38" y="-166.058" font-family="Times,serif" font-size="14.00">&#39;g&#39; / init_goal, advance_strp</text>
</g>
<!-- 7 -->
<g id="node11" class="node"><title>7</title>
<ellipse fill="none" stroke="black" cx="2027.53" cy="-121.258" rx="23.5" ry="23.5"/>
<ellipse fill="none" stroke="black" cx="2027.53" cy="-121.258" rx="27.5" ry="27.5"/>
<text text-anchor="middle" x="2027.53" y="-117.058" font-family="Times,serif" font-size="14.00">7</text>
</g>
<!-- 6&#45;&gt;7 -->
<g id="edge19" class="edge"><title>6&#45;&gt;7</title>
<path fill="none" stroke="black" d="M1869.76,-121.258C1901.28,-121.258 1953.91,-121.258 1989.4,-121.258"/>
<polygon fill="black" stroke="black" points="1989.82,-124.759 1999.82,-121.258 1989.82,-117.759 1989.82,-124.759"/>
<text text-anchor="middle" x="1934.81" y="-124.058" font-family="Times,serif" font-size="14.00">&#39;)&#39; / advance_strp</text>
</g>
<!-- 7&#45;&gt;eof_7 -->
<g id="edge26" class="edge"><title>7&#45;&gt;eof_7</title>
<path fill="none" stroke="black" d="M2055.29,-121.258C2082.22,-121.258 2122.46,-121.258 2141.92,-121.258"/>
<polygon fill="black" stroke="black" points="2142.19,-124.759 2152.19,-121.258 2142.19,-117.759 2142.19,-124.759"/>
<text text-anchor="middle" x="2103.75" y="-124.058" font-family="Times,serif" font-size="14.00">EOF / goal</text>
</g>
<!-- 7&#45;&gt;0 -->
<g id="edge23" class="edge"><title>7&#45;&gt;0</title>
<path fill="none" stroke="black" d="M2009.09,-100.52C1978.95,-67.1542 1913.55,-5.25841 1843.08,-5.25841 366.752,-5.25841 366.752,-5.25841 366.752,-5.25841 264.599,-5.25841 218.541,19.7685 140.593,-46.2584 115.291,-67.6911 104.375,-104.618 99.6659,-132.615"/>
<polygon fill="black" stroke="black" points="96.1519,-132.452 98.1479,-142.857 103.076,-133.478 96.1519,-132.452"/>
<text text-anchor="middle" x="1204.38" y="-8.05841" font-family="Times,serif" font-size="14.00">DEF / goal, advance_strp</text>
</g>
<!-- 7&#45;&gt;1 -->
<g id="edge22" class="edge"><title>7&#45;&gt;1</title>
<path fill="none" stroke="black" d="M2007.58,-140.444C1976.28,-169.991 1910.5,-223.258 1843.08,-223.258 1547.67,-223.258 1547.67,-223.258 1547.67,-223.258 1055.97,-223.258 932.458,-201.191 441.349,-225.258 429.633,-225.833 416.889,-226.908 405.396,-228.046"/>
<polygon fill="black" stroke="black" points="404.844,-224.585 395.259,-229.097 405.566,-231.547 404.844,-224.585"/>
<text text-anchor="middle" x="1391.49" y="-226.058" font-family="Times,serif" font-size="14.00">&#39;g&#39; / goal, init_goal, advance_strp</text>
</g>
</g>
</svg>
