<?xml version="1.0" encoding="UTF-8" standalone="no"?>
<!DOCTYPE svg PUBLIC "-//W3C//DTD SVG 1.1//EN"
 "http://www.w3.org/Graphics/SVG/1.1/DTD/svg11.dtd">
<!-- Generated by graphviz version 2.38.0 (20140413.2041)
 -->
<!-- Title: goal Pages: 1 -->
<svg width="1923pt" height="367pt"
 viewBox="0.00 0.00 1923.18 366.50" xmlns="http://www.w3.org/2000/svg" xmlns:xlink="http://www.w3.org/1999/xlink">
<g id="graph0" class="graph" transform="scale(1 1) rotate(0) translate(4 362.5)">
<title>goal</title>
<polygon fill="white" stroke="none" points="-4,4 -4,-362.5 1919.18,-362.5 1919.18,4 -4,4"/>
<!-- ENTRY -->
<g id="node1" class="node"><title>ENTRY</title>
<ellipse fill="black" stroke="black" cx="1.8" cy="-154.5" rx="1.8" ry="1.8"/>
</g>
<!-- 9 -->
<g id="node23" class="node"><title>9</title>
<ellipse fill="none" stroke="black" cx="95.0932" cy="-135.5" rx="23.5" ry="23.5"/>
<ellipse fill="none" stroke="black" cx="95.0932" cy="-135.5" rx="27.5" ry="27.5"/>
<text text-anchor="middle" x="95.0932" y="-131.3" font-family="Times,serif" font-size="14.00">9</text>
</g>
<!-- ENTRY&#45;&gt;9 -->
<g id="edge25" class="edge"><title>ENTRY&#45;&gt;9</title>
<path fill="none" stroke="black" d="M3.82527,-154.287C9.22734,-153.162 34.9965,-147.799 57.6261,-143.09"/>
<polygon fill="black" stroke="black" points="58.641,-146.453 67.718,-140.989 57.2146,-139.6 58.641,-146.453"/>
<text text-anchor="middle" x="35.5966" y="-153.3" font-family="Times,serif" font-size="14.00">IN</text>
</g>
<!-- en_1 -->
<g id="node2" class="node"><title>en_1</title>
<ellipse fill="black" stroke="black" cx="1.8" cy="-307.5" rx="1.8" ry="1.8"/>
</g>
<!-- 1 -->
<g id="node27" class="node"><title>1</title>
<ellipse fill="none" stroke="black" cx="95.0932" cy="-307.5" rx="23.5" ry="23.5"/>
<text text-anchor="middle" x="95.0932" y="-303.3" font-family="Times,serif" font-size="14.00">1</text>
</g>
<!-- en_1&#45;&gt;1 -->
<g id="edge26" class="edge"><title>en_1&#45;&gt;1</title>
<path fill="none" stroke="black" d="M3.82527,-307.5C9.49915,-307.5 37.6412,-307.5 61.015,-307.5"/>
<polygon fill="black" stroke="black" points="61.321,-311 71.3209,-307.5 61.3209,-304 61.321,-311"/>
<text text-anchor="middle" x="35.5966" y="-310.3" font-family="Times,serif" font-size="14.00">goal</text>
</g>
<!-- en_9 -->
<g id="node3" class="node"><title>en_9</title>
<ellipse fill="black" stroke="black" cx="1.8" cy="-117.5" rx="1.8" ry="1.8"/>
</g>
<!-- en_9&#45;&gt;9 -->
<g id="edge27" class="edge"><title>en_9&#45;&gt;9</title>
<path fill="none" stroke="black" d="M3.97331,-117.379C9.30138,-116.861 31.7301,-115.006 49.5932,-118.5 53.0249,-119.171 56.537,-120.084 60.0092,-121.141"/>
<polygon fill="black" stroke="black" points="58.9948,-124.493 69.5894,-124.419 61.261,-117.87 58.9948,-124.493"/>
<text text-anchor="middle" x="35.5966" y="-121.3" font-family="Times,serif" font-size="14.00">main</text>
</g>
<!-- eof_1 -->
<g id="node4" class="node"><title>eof_1</title>
<ellipse fill="black" stroke="black" cx="447.798" cy="-344.5" rx="1.8" ry="1.8"/>
</g>
<!-- eof_2 -->
<g id="node5" class="node"><title>eof_2</title>
<ellipse fill="black" stroke="black" cx="733.879" cy="-295.5" rx="1.8" ry="1.8"/>
</g>
<!-- eof_3 -->
<g id="node6" class="node"><title>eof_3</title>
<ellipse fill="black" stroke="black" cx="943.338" cy="-284.5" rx="1.8" ry="1.8"/>
</g>
<!-- eof_4 -->
<g id="node7" class="node"><title>eof_4</title>
<ellipse fill="black" stroke="black" cx="1140.65" cy="-259.5" rx="1.8" ry="1.8"/>
</g>
<!-- eof_5 -->
<g id="node8" class="node"><title>eof_5</title>
<ellipse fill="black" stroke="black" cx="1337.96" cy="-215.5" rx="1.8" ry="1.8"/>
</g>
<!-- eof_6 -->
<g id="node9" class="node"><title>eof_6</title>
<ellipse fill="black" stroke="black" cx="1535.27" cy="-166.5" rx="1.8" ry="1.8"/>
</g>
<!-- eof_7 -->
<g id="node10" class="node"><title>eof_7</title>
<ellipse fill="black" stroke="black" cx="1736.58" cy="-117.5" rx="1.8" ry="1.8"/>
</g>
<!-- eof_8 -->
<g id="node11" class="node"><title>eof_8</title>
<ellipse fill="black" stroke="black" cx="1140.65" cy="-135.5" rx="1.8" ry="1.8"/>
</g>
<!-- eof_9 -->
<g id="node12" class="node"><title>eof_9</title>
<ellipse fill="black" stroke="black" cx="447.798" cy="-214.5" rx="1.8" ry="1.8"/>
</g>
<!-- eof_12 -->
<g id="node13" class="node"><title>eof_12</title>
<ellipse fill="black" stroke="black" cx="1908.18" cy="-46.5" rx="1.8" ry="1.8"/>
</g>
<!-- err_1 -->
<g id="node14" class="node"><title>err_1</title>
<ellipse fill="none" stroke="black" cx="447.798" cy="-307.5" rx="7" ry="7"/>
</g>
<!-- err_2 -->
<g id="node15" class="node"><title>err_2</title>
<ellipse fill="none" stroke="black" cx="733.879" cy="-258.5" rx="7" ry="7"/>
</g>
<!-- err_3 -->
<g id="node16" class="node"><title>err_3</title>
<ellipse fill="none" stroke="black" cx="943.338" cy="-253.5" rx="7" ry="7"/>
</g>
<!-- err_4 -->
<g id="node17" class="node"><title>err_4</title>
<ellipse fill="none" stroke="black" cx="1140.65" cy="-227.5" rx="7" ry="7"/>
</g>
<!-- err_5 -->
<g id="node18" class="node"><title>err_5</title>
<ellipse fill="none" stroke="black" cx="1337.96" cy="-178.5" rx="7" ry="7"/>
</g>
<!-- err_6 -->
<g id="node19" class="node"><title>err_6</title>
<ellipse fill="none" stroke="black" cx="1535.27" cy="-129.5" rx="7" ry="7"/>
</g>
<!-- err_7 -->
<g id="node20" class="node"><title>err_7</title>
<ellipse fill="none" stroke="black" cx="1736.58" cy="-80.5" rx="7" ry="7"/>
</g>
<!-- err_8 -->
<g id="node21" class="node"><title>err_8</title>
<ellipse fill="none" stroke="black" cx="1140.65" cy="-98.5" rx="7" ry="7"/>
</g>
<!-- err_12 -->
<g id="node22" class="node"><title>err_12</title>
<ellipse fill="none" stroke="black" cx="1908.18" cy="-9.5" rx="7" ry="7"/>
</g>
<!-- 9&#45;&gt;eof_9 -->
<g id="edge36" class="edge"><title>9&#45;&gt;eof_9</title>
<path fill="none" stroke="black" d="M120.763,-146.378C127.143,-148.941 134.057,-151.505 140.593,-153.5 243.46,-184.898 271.6,-183.968 377.364,-203.5 397.812,-207.276 421.797,-210.898 435.554,-212.899"/>
<polygon fill="black" stroke="black" points="435.421,-216.415 445.816,-214.364 436.411,-209.486 435.421,-216.415"/>
<text text-anchor="middle" x="249.978" y="-203.3" font-family="Times,serif" font-size="14.00">EOF / buffer_init</text>
</g>
<!-- 10 -->
<g id="node24" class="node"><title>10</title>
<ellipse fill="none" stroke="black" cx="447.798" cy="-135.5" rx="23.5" ry="23.5"/>
<ellipse fill="none" stroke="black" cx="447.798" cy="-135.5" rx="27.5" ry="27.5"/>
<text text-anchor="middle" x="447.798" y="-131.3" font-family="Times,serif" font-size="14.00">10</text>
</g>
<!-- 9&#45;&gt;10 -->
<g id="edge19" class="edge"><title>9&#45;&gt;10</title>
<path fill="none" stroke="black" d="M122.741,-135.5C184.774,-135.5 338.944,-135.5 409.938,-135.5"/>
<polygon fill="black" stroke="black" points="410.191,-139 420.191,-135.5 410.191,-132 410.191,-139"/>
<text text-anchor="middle" x="249.978" y="-138.3" font-family="Times,serif" font-size="14.00">DEF / buffer_init, buffer_advance_strp</text>
</g>
<!-- 11 -->
<g id="node25" class="node"><title>11</title>
<ellipse fill="none" stroke="black" cx="733.879" cy="-108.5" rx="23.5" ry="23.5"/>
<ellipse fill="none" stroke="black" cx="733.879" cy="-108.5" rx="27.5" ry="27.5"/>
<text text-anchor="middle" x="733.879" y="-104.3" font-family="Times,serif" font-size="14.00">11</text>
</g>
<!-- 9&#45;&gt;11 -->
<g id="edge18" class="edge"><title>9&#45;&gt;11</title>
<path fill="none" stroke="black" d="M122.247,-129.131C171.698,-117.455 282.461,-93.0343 377.364,-84.5 439.72,-78.8925 455.663,-82.2963 518.232,-84.5 593.994,-87.1683 613.624,-83.9058 688.379,-96.5 691.264,-96.986 694.233,-97.578 697.202,-98.2358"/>
<polygon fill="black" stroke="black" points="696.637,-101.7 707.182,-100.667 698.294,-94.8994 696.637,-101.7"/>
<text text-anchor="middle" x="447.798" y="-87.3" font-family="Times,serif" font-size="14.00">&#39;g&#39; / buffer_init, call_goal</text>
</g>
<!-- 10&#45;&gt;10 -->
<g id="edge21" class="edge"><title>10&#45;&gt;10</title>
<path fill="none" stroke="black" d="M423.804,-149.944C409.691,-164.641 417.688,-181 447.798,-181 472.262,-181 482.128,-170.201 477.398,-158.267"/>
<polygon fill="black" stroke="black" points="480.281,-156.282 471.791,-149.944 474.475,-160.193 480.281,-156.282"/>
<text text-anchor="middle" x="447.798" y="-183.8" font-family="Times,serif" font-size="14.00">DEF / buffer_advance_strp</text>
</g>
<!-- 10&#45;&gt;11 -->
<g id="edge20" class="edge"><title>10&#45;&gt;11</title>
<path fill="none" stroke="black" d="M475.312,-136.53C519.792,-137.733 612.072,-137.984 688.379,-123.5 691.583,-122.892 694.872,-122.108 698.142,-121.217"/>
<polygon fill="black" stroke="black" points="699.23,-124.544 707.786,-118.296 697.201,-117.845 699.23,-124.544"/>
<text text-anchor="middle" x="612.306" y="-140.3" font-family="Times,serif" font-size="14.00">&#39;g&#39; / call_goal</text>
</g>
<!-- 11&#45;&gt;10 -->
<g id="edge23" class="edge"><title>11&#45;&gt;10</title>
<path fill="none" stroke="black" d="M706.572,-105.12C668.64,-100.918 596.517,-95.4453 536.232,-105.5 518.011,-108.539 498.498,-114.911 482.539,-121.003"/>
<polygon fill="black" stroke="black" points="481.121,-117.8 473.105,-124.728 483.692,-124.311 481.121,-117.8"/>
<text text-anchor="middle" x="612.306" y="-108.3" font-family="Times,serif" font-size="14.00">DEF / buffer_advance_strp</text>
</g>
<!-- 11&#45;&gt;11 -->
<g id="edge22" class="edge"><title>11&#45;&gt;11</title>
<path fill="none" stroke="black" d="M715.407,-129.089C710.952,-141.853 717.11,-154 733.879,-154 746.063,-154 752.646,-147.588 753.626,-139.185"/>
<polygon fill="black" stroke="black" points="757.076,-138.572 752.352,-129.089 750.131,-139.449 757.076,-138.572"/>
<text text-anchor="middle" x="733.879" y="-156.8" font-family="Times,serif" font-size="14.00">&#39;g&#39; / call_goal</text>
</g>
<!-- 12 -->
<g id="node26" class="node"><title>12</title>
<ellipse fill="none" stroke="black" cx="1736.58" cy="-27.5" rx="23.5" ry="23.5"/>
<ellipse fill="none" stroke="black" cx="1736.58" cy="-27.5" rx="27.5" ry="27.5"/>
<text text-anchor="middle" x="1736.58" y="-23.3" font-family="Times,serif" font-size="14.00">12</text>
</g>
<!-- 12&#45;&gt;eof_12 -->
<g id="edge37" class="edge"><title>12&#45;&gt;eof_12</title>
<path fill="none" stroke="black" d="M1764.08,-30.4688C1801.81,-34.6957 1869.39,-42.2663 1895.99,-45.246"/>
<polygon fill="black" stroke="black" points="1895.77,-48.7435 1906.1,-46.3787 1896.55,-41.787 1895.77,-48.7435"/>
<text text-anchor="middle" x="1832.63" y="-47.3" font-family="Times,serif" font-size="14.00">EOF / goal_found</text>
</g>
<!-- 12&#45;&gt;err_12 -->
<g id="edge24" class="edge"><title>12&#45;&gt;err_12</title>
<path fill="none" stroke="black" d="M1762.07,-16.3575C1768.46,-13.9531 1775.42,-11.7571 1782.08,-10.5 1820.61,-3.23228 1867,-5.71625 1891.01,-7.8134"/>
<polygon fill="black" stroke="black" points="1890.83,-11.312 1901.12,-8.79432 1891.51,-4.34473 1890.83,-11.312"/>
<text text-anchor="middle" x="1832.63" y="-13.3" font-family="Times,serif" font-size="14.00">DEF / goal_found</text>
</g>
<!-- 1&#45;&gt;eof_1 -->
<g id="edge28" class="edge"><title>1&#45;&gt;eof_1</title>
<path fill="none" stroke="black" d="M117.521,-315.946C124.744,-318.462 132.92,-320.957 140.593,-322.5 253.894,-345.281 394.942,-345.254 435.446,-344.712"/>
<polygon fill="black" stroke="black" points="435.747,-348.208 445.683,-344.528 435.622,-341.209 435.747,-348.208"/>
<text text-anchor="middle" x="249.978" y="-347.3" font-family="Times,serif" font-size="14.00">EOF / goal_rollback</text>
</g>
<!-- 1&#45;&gt;err_1 -->
<g id="edge2" class="edge"><title>1&#45;&gt;err_1</title>
<path fill="none" stroke="black" d="M118.834,-307.5C184.448,-307.5 373.052,-307.5 430.193,-307.5"/>
<polygon fill="black" stroke="black" points="430.548,-311 440.548,-307.5 430.548,-304 430.548,-311"/>
<text text-anchor="middle" x="249.978" y="-310.3" font-family="Times,serif" font-size="14.00">DEF / goal_rollback</text>
</g>
<!-- 2 -->
<g id="node28" class="node"><title>2</title>
<ellipse fill="none" stroke="black" cx="447.798" cy="-258.5" rx="23.5" ry="23.5"/>
<text text-anchor="middle" x="447.798" y="-254.3" font-family="Times,serif" font-size="14.00">2</text>
</g>
<!-- 1&#45;&gt;2 -->
<g id="edge1" class="edge"><title>1&#45;&gt;2</title>
<path fill="none" stroke="black" d="M116.515,-297.825C123.944,-294.687 132.503,-291.502 140.593,-289.5 238.047,-265.379 357.395,-259.966 414.002,-258.793"/>
<polygon fill="black" stroke="black" points="414.206,-262.29 424.143,-258.615 414.083,-255.291 414.206,-262.29"/>
<text text-anchor="middle" x="249.978" y="-292.3" font-family="Times,serif" font-size="14.00">&#39;g&#39; / init_goal, goal_all</text>
</g>
<!-- 2&#45;&gt;eof_2 -->
<g id="edge29" class="edge"><title>2&#45;&gt;eof_2</title>
<path fill="none" stroke="black" d="M471.022,-262.682C488.66,-265.912 513.968,-270.348 536.232,-273.5 606.385,-283.433 691.141,-291.641 721.434,-294.456"/>
<polygon fill="black" stroke="black" points="721.35,-297.963 731.627,-295.388 721.988,-290.992 721.35,-297.963"/>
<text text-anchor="middle" x="612.306" y="-294.3" font-family="Times,serif" font-size="14.00">EOF / goal_rollback</text>
</g>
<!-- 2&#45;&gt;err_2 -->
<g id="edge4" class="edge"><title>2&#45;&gt;err_2</title>
<path fill="none" stroke="black" d="M471.565,-258.5C527.156,-258.5 668.766,-258.5 716.72,-258.5"/>
<polygon fill="black" stroke="black" points="716.784,-262 726.784,-258.5 716.784,-255 716.784,-262"/>
<text text-anchor="middle" x="612.306" y="-261.3" font-family="Times,serif" font-size="14.00">DEF / goal_rollback</text>
</g>
<!-- 3 -->
<g id="node29" class="node"><title>3</title>
<ellipse fill="none" stroke="black" cx="733.879" cy="-209.5" rx="23.5" ry="23.5"/>
<text text-anchor="middle" x="733.879" y="-205.3" font-family="Times,serif" font-size="14.00">3</text>
</g>
<!-- 2&#45;&gt;3 -->
<g id="edge3" class="edge"><title>2&#45;&gt;3</title>
<path fill="none" stroke="black" d="M471.023,-253.626C488.661,-249.83 513.969,-244.544 536.232,-240.5 593.735,-230.054 661.074,-219.882 700.164,-214.18"/>
<polygon fill="black" stroke="black" points="701.015,-217.593 710.408,-212.694 700.009,-210.666 701.015,-217.593"/>
<text text-anchor="middle" x="612.306" y="-243.3" font-family="Times,serif" font-size="14.00">&#39;(&#39; / goal_all</text>
</g>
<!-- 3&#45;&gt;eof_3 -->
<g id="edge30" class="edge"><title>3&#45;&gt;eof_3</title>
<path fill="none" stroke="black" d="M749.478,-227.506C761.661,-242.432 777.353,-261.385 779.379,-262.5 830.256,-290.511 903.182,-287.896 930.984,-285.641"/>
<polygon fill="black" stroke="black" points="931.6,-289.098 941.212,-284.64 930.918,-282.131 931.6,-289.098"/>
<text text-anchor="middle" x="840.609" y="-290.3" font-family="Times,serif" font-size="14.00">EOF / goal_rollback</text>
</g>
<!-- 3&#45;&gt;err_3 -->
<g id="edge7" class="edge"><title>3&#45;&gt;err_3</title>
<path fill="none" stroke="black" d="M755.918,-217.918C763.254,-220.625 771.599,-223.45 779.379,-225.5 807.062,-232.795 890.528,-245.719 926.05,-251.073"/>
<polygon fill="black" stroke="black" points="925.701,-254.56 936.109,-252.579 926.738,-247.637 925.701,-254.56"/>
<text text-anchor="middle" x="840.609" y="-250.3" font-family="Times,serif" font-size="14.00">DEF / goal_rollback</text>
</g>
<!-- 4 -->
<g id="node30" class="node"><title>4</title>
<ellipse fill="none" stroke="black" cx="943.338" cy="-204.5" rx="23.5" ry="23.5"/>
<text text-anchor="middle" x="943.338" y="-200.3" font-family="Times,serif" font-size="14.00">4</text>
</g>
<!-- 3&#45;&gt;4 -->
<g id="edge5" class="edge"><title>3&#45;&gt;4</title>
<path fill="none" stroke="black" d="M757.476,-208.955C794.265,-208.069 867.252,-206.31 909.681,-205.287"/>
<polygon fill="black" stroke="black" points="909.857,-208.784 919.769,-205.044 909.688,-201.786 909.857,-208.784"/>
<text text-anchor="middle" x="840.609" y="-211.3" font-family="Times,serif" font-size="14.00">&#39;&quot;&#39;, &#39;&#39;&#39; / goal_all</text>
</g>
<!-- 8 -->
<g id="node31" class="node"><title>8</title>
<ellipse fill="none" stroke="black" cx="943.338" cy="-135.5" rx="23.5" ry="23.5"/>
<text text-anchor="middle" x="943.338" y="-131.3" font-family="Times,serif" font-size="14.00">8</text>
</g>
<!-- 3&#45;&gt;8 -->
<g id="edge6" class="edge"><title>3&#45;&gt;8</title>
<path fill="none" stroke="black" d="M755.444,-199.059C762.886,-195.478 771.417,-191.596 779.379,-188.5 832.491,-167.845 847.886,-168.847 901.838,-150.5 904.962,-149.438 908.208,-148.298 911.442,-147.138"/>
<polygon fill="black" stroke="black" points="912.783,-150.374 920.976,-143.657 910.382,-143.799 912.783,-150.374"/>
<text text-anchor="middle" x="840.609" y="-191.3" font-family="Times,serif" font-size="14.00">&#39;)&#39; / inner_oh, goal_all</text>
</g>
<!-- 4&#45;&gt;eof_4 -->
<g id="edge31" class="edge"><title>4&#45;&gt;eof_4</title>
<path fill="none" stroke="black" d="M960.298,-220.899C967.254,-227.087 975.864,-233.574 984.838,-237.5 1034.97,-259.433 1102.13,-260.466 1128.43,-259.914"/>
<polygon fill="black" stroke="black" points="1128.74,-263.405 1138.61,-259.559 1128.49,-256.41 1128.74,-263.405"/>
<text text-anchor="middle" x="1041.99" y="-263.3" font-family="Times,serif" font-size="14.00">EOF / goal_rollback</text>
</g>
<!-- 4&#45;&gt;err_4 -->
<g id="edge9" class="edge"><title>4&#45;&gt;err_4</title>
<path fill="none" stroke="black" d="M966.743,-207.138C1006.54,-211.825 1088.64,-221.493 1123.46,-225.594"/>
<polygon fill="black" stroke="black" points="1123.32,-229.102 1133.66,-226.795 1124.14,-222.15 1123.32,-229.102"/>
<text text-anchor="middle" x="1041.99" y="-226.3" font-family="Times,serif" font-size="14.00">DEF / goal_rollback</text>
</g>
<!-- 5 -->
<g id="node32" class="node"><title>5</title>
<ellipse fill="none" stroke="black" cx="1140.65" cy="-178.5" rx="23.5" ry="23.5"/>
<text text-anchor="middle" x="1140.65" y="-174.3" font-family="Times,serif" font-size="14.00">5</text>
</g>
<!-- 4&#45;&gt;5 -->
<g id="edge8" class="edge"><title>4&#45;&gt;5</title>
<path fill="none" stroke="black" d="M965.538,-196.697C971.689,-194.707 978.466,-192.773 984.838,-191.5 1026.36,-183.205 1075.18,-180.195 1106.72,-179.107"/>
<polygon fill="black" stroke="black" points="1107.23,-182.594 1117.12,-178.797 1107.02,-175.597 1107.23,-182.594"/>
<text text-anchor="middle" x="1041.99" y="-194.3" font-family="Times,serif" font-size="14.00">&#39;a&#39; / goal_all</text>
</g>
<!-- 8&#45;&gt;eof_8 -->
<g id="edge35" class="edge"><title>8&#45;&gt;eof_8</title>
<path fill="none" stroke="black" d="M967.125,-135.5C1009.01,-135.5 1096.82,-135.5 1128.2,-135.5"/>
<polygon fill="black" stroke="black" points="1128.28,-139 1138.28,-135.5 1128.28,-132 1128.28,-139"/>
<text text-anchor="middle" x="1041.99" y="-138.3" font-family="Times,serif" font-size="14.00">EOF / goal_rollback</text>
</g>
<!-- 8&#45;&gt;err_8 -->
<g id="edge17" class="edge"><title>8&#45;&gt;err_8</title>
<path fill="none" stroke="black" d="M964.507,-125.129C970.867,-122.245 978.016,-119.389 984.838,-117.5 1034.16,-103.841 1095.04,-99.9941 1123.52,-98.9162"/>
<polygon fill="black" stroke="black" points="1123.73,-102.411 1133.62,-98.6033 1123.52,-95.4148 1123.73,-102.411"/>
<text text-anchor="middle" x="1041.99" y="-120.3" font-family="Times,serif" font-size="14.00">DEF / goal_rollback</text>
</g>
<!-- 8&#45;&gt;3 -->
<g id="edge16" class="edge"><title>8&#45;&gt;3</title>
<path fill="none" stroke="black" d="M920.904,-127.951C887.525,-117.649 822.489,-103.558 779.379,-132.5 761.837,-144.277 772.105,-158.296 761.379,-176.5 759.825,-179.137 758.076,-181.79 756.235,-184.383"/>
<polygon fill="black" stroke="black" points="753.429,-182.291 750.173,-192.373 759.006,-186.522 753.429,-182.291"/>
<text text-anchor="middle" x="840.609" y="-135.3" font-family="Times,serif" font-size="14.00">&#39;(&#39; / goal_all</text>
</g>
<!-- 5&#45;&gt;eof_5 -->
<g id="edge32" class="edge"><title>5&#45;&gt;eof_5</title>
<path fill="none" stroke="black" d="M1162.82,-187.309C1168.97,-189.602 1175.75,-191.881 1182.15,-193.5 1234.95,-206.865 1300.07,-212.794 1325.77,-214.733"/>
<polygon fill="black" stroke="black" points="1325.74,-218.239 1335.96,-215.44 1326.23,-211.256 1325.74,-218.239"/>
<text text-anchor="middle" x="1239.3" y="-215.3" font-family="Times,serif" font-size="14.00">EOF / goal_rollback</text>
</g>
<!-- 5&#45;&gt;err_5 -->
<g id="edge11" class="edge"><title>5&#45;&gt;err_5</title>
<path fill="none" stroke="black" d="M1164.44,-178.5C1204.22,-178.5 1285.44,-178.5 1320.38,-178.5"/>
<polygon fill="black" stroke="black" points="1320.66,-182 1330.66,-178.5 1320.66,-175 1320.66,-182"/>
<text text-anchor="middle" x="1239.3" y="-181.3" font-family="Times,serif" font-size="14.00">DEF / goal_rollback</text>
</g>
<!-- 6 -->
<g id="node33" class="node"><title>6</title>
<ellipse fill="none" stroke="black" cx="1337.96" cy="-129.5" rx="23.5" ry="23.5"/>
<text text-anchor="middle" x="1337.96" y="-125.3" font-family="Times,serif" font-size="14.00">6</text>
</g>
<!-- 5&#45;&gt;6 -->
<g id="edge10" class="edge"><title>5&#45;&gt;6</title>
<path fill="none" stroke="black" d="M1161.91,-168.445C1168.28,-165.574 1175.4,-162.645 1182.15,-160.5 1223.45,-147.364 1272.8,-138.628 1304.49,-133.869"/>
<polygon fill="black" stroke="black" points="1305.13,-137.312 1314.52,-132.406 1304.12,-130.385 1305.13,-137.312"/>
<text text-anchor="middle" x="1239.3" y="-163.3" font-family="Times,serif" font-size="14.00">&#39;l&#39; / goal_all</text>
</g>
<!-- 6&#45;&gt;eof_6 -->
<g id="edge33" class="edge"><title>6&#45;&gt;eof_6</title>
<path fill="none" stroke="black" d="M1360.13,-138.309C1366.28,-140.602 1373.06,-142.881 1379.46,-144.5 1432.26,-157.865 1497.38,-163.794 1523.08,-165.733"/>
<polygon fill="black" stroke="black" points="1523.05,-169.239 1533.27,-166.44 1523.54,-162.256 1523.05,-169.239"/>
<text text-anchor="middle" x="1436.61" y="-166.3" font-family="Times,serif" font-size="14.00">EOF / goal_rollback</text>
</g>
<!-- 6&#45;&gt;err_6 -->
<g id="edge13" class="edge"><title>6&#45;&gt;err_6</title>
<path fill="none" stroke="black" d="M1361.75,-129.5C1401.53,-129.5 1482.75,-129.5 1517.69,-129.5"/>
<polygon fill="black" stroke="black" points="1517.97,-133 1527.97,-129.5 1517.97,-126 1517.97,-133"/>
<text text-anchor="middle" x="1436.61" y="-132.3" font-family="Times,serif" font-size="14.00">DEF / goal_rollback</text>
</g>
<!-- 7 -->
<g id="node34" class="node"><title>7</title>
<ellipse fill="none" stroke="black" cx="1535.27" cy="-80.5" rx="23.5" ry="23.5"/>
<text text-anchor="middle" x="1535.27" y="-76.3" font-family="Times,serif" font-size="14.00">7</text>
</g>
<!-- 6&#45;&gt;7 -->
<g id="edge12" class="edge"><title>6&#45;&gt;7</title>
<path fill="none" stroke="black" d="M1359.22,-119.445C1365.59,-116.574 1372.71,-113.645 1379.46,-111.5 1420.76,-98.3635 1470.11,-89.628 1501.8,-84.8686"/>
<polygon fill="black" stroke="black" points="1502.44,-88.3119 1511.83,-83.4063 1501.43,-81.385 1502.44,-88.3119"/>
<text text-anchor="middle" x="1436.61" y="-114.3" font-family="Times,serif" font-size="14.00">&#39;&quot;&#39;, &#39;&#39;&#39; / goal_all</text>
</g>
<!-- 7&#45;&gt;eof_7 -->
<g id="edge34" class="edge"><title>7&#45;&gt;eof_7</title>
<path fill="none" stroke="black" d="M1557.44,-89.3237C1563.59,-91.617 1570.37,-93.892 1576.77,-95.5 1631.18,-109.173 1698.36,-114.953 1724.47,-116.793"/>
<polygon fill="black" stroke="black" points="1724.35,-120.293 1734.56,-117.444 1724.8,-113.307 1724.35,-120.293"/>
<text text-anchor="middle" x="1633.93" y="-117.3" font-family="Times,serif" font-size="14.00">EOF / goal_rollback</text>
</g>
<!-- 7&#45;&gt;err_7 -->
<g id="edge15" class="edge"><title>7&#45;&gt;err_7</title>
<path fill="none" stroke="black" d="M1559.13,-80.5C1599.74,-80.5 1683.53,-80.5 1719.06,-80.5"/>
<polygon fill="black" stroke="black" points="1719.47,-84.0001 1729.47,-80.5 1719.47,-77.0001 1719.47,-84.0001"/>
<text text-anchor="middle" x="1633.93" y="-83.3" font-family="Times,serif" font-size="14.00">DEF / goal_rollback</text>
</g>
<!-- 7&#45;&gt;12 -->
<g id="edge14" class="edge"><title>7&#45;&gt;12</title>
<path fill="none" stroke="black" d="M1556.56,-70.5248C1562.92,-67.6569 1570.05,-64.7105 1576.77,-62.5 1617.91,-48.9763 1666.77,-39.0928 1699.33,-33.3427"/>
<polygon fill="black" stroke="black" points="1700.03,-36.7724 1709.29,-31.6217 1698.84,-29.8745 1700.03,-36.7724"/>
<text text-anchor="middle" x="1633.93" y="-65.3" font-family="Times,serif" font-size="14.00">&#39;)&#39; / goal_all</text>
</g>
</g>
</svg>
